<?xml version="1.0" encoding="utf-8"?>
<svg xmlns="http://www.w3.org/2000/svg" viewBox="0 0 36 36" width="36" height="36">
  <rect width="36" height="36" rx="9" fill="#4f46e5"/>
  <circle cx="10" cy="10" r="1.8" fill="white" opacity="0.45"/>
  <circle cx="18" cy="10" r="1.8" fill="white" opacity="0.45"/>
  <circle cx="26" cy="10" r="1.8" fill="white" opacity="0.45"/>
  <circle cx="10" cy="18" r="1.8" fill="white" opacity="0.45"/>
  <circle cx="26" cy="18" r="1.8" fill="white" opacity="0.45"/>
  <circle cx="10" cy="26" r="1.8" fill="white" opacity="0.45"/>
  <circle cx="18" cy="26" r="1.8" fill="white" opacity="0.45"/>
  <circle cx="26" cy="26" r="1.8" fill="white" opacity="0.45"/>
  <circle cx="18" cy="18" r="4" fill="white"/>
  <text x="18" y="21.5" font-family="Georgia,serif" font-weight="900" font-size="7" fill="#4f46e5" text-anchor="middle">M</text>
  <line x1="18" y1="14" x2="10" y2="10" stroke="white" stroke-width="0.9" opacity="0.3"/>
  <line x1="18" y1="14" x2="18" y2="10" stroke="white" stroke-width="0.9" opacity="0.3"/>
  <line x1="18" y1="14" x2="26" y2="10" stroke="white" stroke-width="0.9" opacity="0.3"/>
  <line x1="22" y1="18" x2="26" y2="18" stroke="white" stroke-width="0.9" opacity="0.3"/>
  <line x1="18" y1="22" x2="26" y2="26" stroke="white" stroke-width="0.9" opacity="0.3"/>
  <line x1="18" y1="22" x2="18" y2="26" stroke="white" stroke-width="0.9" opacity="0.3"/>
  <line x1="18" y1="22" x2="10" y2="26" stroke="white" stroke-width="0.9" opacity="0.3"/>
  <line x1="14" y1="18" x2="10" y2="18" stroke="white" stroke-width="0.9" opacity="0.3"/>
</svg>
